# xmcd
#
# Track frame offsets:
#	150
#	11437
#	22352
#	33925
#	47215
#	58352
#	68295
#	80700
#	93197
#	105047
#
# Disc length: 1510 seconds
#
# Revision: 1
# Processed by: cddbd v1.5.2PL0 Copyright (c) Steve Scherf et al.
# Submitted via: EasyCDDAExtractor 10.2.0.1
#
DISCID=7505e40a
DTITLE=J. D. Crowe And The New South - Bluegrass Evolution
DYEAR=1973
DGENRE=Bluegrass
TTITLE0=You Can Have Her
TTITLE1=You Can Share My Blanket
TTITLE2=Devil In Disguise
TTITLE3=God's Own Singer
TTITLE4=Ten Degrees And Getting Colder
TTITLE5=How Come You Do Me (Like You Do)
TTITLE6=For Loving Me
TTITLE7=My Heart Talks To Me
TTITLE8=Come On Down To My World
TTITLE9=Leaves That Are Green
EXTD=
EXTT0=
EXTT1=
EXTT2=
EXTT3=
EXTT4=
EXTT5=
EXTT6=
EXTT7=
EXTT8=
EXTT9=
PLAYORDER=
